<?xml version="1.0" encoding="UTF-8"?>
<svg xmlns="http://www.w3.org/2000/svg" xmlns:xlink="http://www.w3.org/1999/xlink" width="16px" height="16px" viewBox="0 0 16 16" version="1.1">
<defs>
<filter id="alpha" filterUnits="objectBoundingBox" x="0%" y="0%" width="100%" height="100%">
  <feColorMatrix type="matrix" in="SourceGraphic" values="0 0 0 0 1 0 0 0 0 1 0 0 0 0 1 0 0 0 1 0"/>
</filter>
<mask id="mask0">
  <g filter="url(#alpha)">
<rect x="0" y="0" width="16" height="16" style="fill:rgb(0%,0%,0%);fill-opacity:0.994594;stroke:none;"/>
  </g>
</mask>
<linearGradient id="linear0" gradientUnits="userSpaceOnUse" x1="4" y1="72.999802" x2="24" y2="72.999802" gradientTransform="matrix(-1,0,0,1,128.000008,-4.000008)">
<stop offset="0" style="stop-color:rgb(72.941178%,59.607846%,7.843138%);stop-opacity:1;"/>
<stop offset="0.1" style="stop-color:rgb(85.09804%,73.725492%,28.627452%);stop-opacity:1;"/>
<stop offset="0.3" style="stop-color:rgb(72.941178%,59.607846%,7.843138%);stop-opacity:1;"/>
<stop offset="0.928571" style="stop-color:rgb(72.941178%,59.607846%,7.843138%);stop-opacity:1;"/>
<stop offset="0.964286" style="stop-color:rgb(85.09804%,73.725492%,28.627452%);stop-opacity:1;"/>
<stop offset="1" style="stop-color:rgb(72.941178%,59.607846%,7.843138%);stop-opacity:1;"/>
</linearGradient>
<clipPath id="clip1">
  <rect x="0" y="0" width="192" height="152"/>
</clipPath>
<g id="surface1111" clip-path="url(#clip1)">
<path style=" stroke:none;fill-rule:nonzero;fill:url(#linear0);" d="M 124 64 L 124 68 C 124 70.957031 122.691406 73.761719 120.429688 75.660156 C 117.449219 78.160156 113.296875 78.707031 109.773438 77.0625 C 106.25 75.421875 104 71.886719 104 68 L 104 64 Z M 124 64 "/>
</g>
<mask id="mask1">
  <g filter="url(#alpha)">
<rect x="0" y="0" width="16" height="16" style="fill:rgb(0%,0%,0%);fill-opacity:0.994594;stroke:none;"/>
  </g>
</mask>
<linearGradient id="linear1" gradientUnits="userSpaceOnUse" x1="4" y1="72.999802" x2="24" y2="72.999802" gradientTransform="matrix(1,0,0,1,0,-4.000008)">
<stop offset="0" style="stop-color:rgb(72.941178%,59.607846%,7.843138%);stop-opacity:1;"/>
<stop offset="0.1" style="stop-color:rgb(85.09804%,73.725492%,28.627452%);stop-opacity:1;"/>
<stop offset="0.3" style="stop-color:rgb(72.941178%,59.607846%,7.843138%);stop-opacity:1;"/>
<stop offset="0.928571" style="stop-color:rgb(72.941178%,59.607846%,7.843138%);stop-opacity:1;"/>
<stop offset="0.964286" style="stop-color:rgb(85.09804%,73.725492%,28.627452%);stop-opacity:1;"/>
<stop offset="1" style="stop-color:rgb(72.941178%,59.607846%,7.843138%);stop-opacity:1;"/>
</linearGradient>
<clipPath id="clip2">
  <rect x="0" y="0" width="192" height="152"/>
</clipPath>
<g id="surface1114" clip-path="url(#clip2)">
<path style=" stroke:none;fill-rule:nonzero;fill:url(#linear1);" d="M 4 64 L 4 68 C 4 70.957031 5.308594 73.761719 7.574219 75.660156 C 10.550781 78.160156 14.703125 78.707031 18.226562 77.0625 C 21.75 75.421875 24 71.886719 24 68 L 24 64 Z M 4 64 "/>
</g>
<mask id="mask2">
  <g filter="url(#alpha)">
<rect x="0" y="0" width="16" height="16" style="fill:rgb(0%,0%,0%);fill-opacity:0.994594;stroke:none;"/>
  </g>
</mask>
<radialGradient id="radial0" gradientUnits="userSpaceOnUse" cx="14" cy="236" fx="14" fy="236" r="10" gradientTransform="matrix(1.26511,0,0,1,96.288467,-172.000015)">
<stop offset="0" style="stop-color:rgb(88.627452%,72.941178%,9.803922%);stop-opacity:1;"/>
<stop offset="0.740418" style="stop-color:rgb(88.627452%,72.941178%,9.803922%);stop-opacity:1;"/>
<stop offset="1" style="stop-color:rgb(97.254902%,92.941177%,74.901962%);stop-opacity:1;"/>
</radialGradient>
<clipPath id="clip3">
  <rect x="0" y="0" width="192" height="152"/>
</clipPath>
<g id="surface1117" clip-path="url(#clip3)">
<path style=" stroke:none;fill-rule:nonzero;fill:url(#radial0);" d="M 105.339844 69 C 103.238281 65.359375 103.636719 60.792969 106.339844 57.570312 C 109.042969 54.351562 113.46875 53.164062 117.421875 54.601562 C 121.371094 56.039062 124 59.796875 124 64 "/>
</g>
<mask id="mask3">
  <g filter="url(#alpha)">
<rect x="0" y="0" width="16" height="16" style="fill:rgb(0%,0%,0%);fill-opacity:0.994594;stroke:none;"/>
  </g>
</mask>
<clipPath id="clip4">
  <rect x="0" y="0" width="192" height="152"/>
</clipPath>
<g id="surface1120" clip-path="url(#clip4)">
<path style=" stroke:none;fill-rule:nonzero;fill:rgb(88.627452%,72.941178%,9.803922%);fill-opacity:1;" d="M 12.003906 63.167969 L 12 98 L 24 98 L 23.992188 63.167969 Z M 12.003906 63.167969 "/>
</g>
<mask id="mask4">
  <g filter="url(#alpha)">
<rect x="0" y="0" width="16" height="16" style="fill:rgb(0%,0%,0%);fill-opacity:0.994594;stroke:none;"/>
  </g>
</mask>
<linearGradient id="linear2" gradientUnits="userSpaceOnUse" x1="44" y1="240" x2="44" y2="244" gradientTransform="matrix(1,0,0,1,0,-166.000015)">
<stop offset="0" style="stop-color:rgb(97.254902%,93.333334%,76.47059%);stop-opacity:1;"/>
<stop offset="1" style="stop-color:rgb(92.54902%,80.784315%,33.725491%);stop-opacity:1;"/>
</linearGradient>
<clipPath id="clip5">
  <rect x="0" y="0" width="192" height="152"/>
</clipPath>
<g id="surface1123" clip-path="url(#clip5)">
<path style=" stroke:none;fill-rule:nonzero;fill:rgb(72.941178%,59.607846%,7.843138%);fill-opacity:1;" d="M 43.582031 96.101562 C 32.699219 96.078125 23.996094 95.144531 24 94 L 24 91 L 104 91 L 104 94 C 104 95.160156 95.046875 96.101562 84 96.101562 C 72.953125 96.101562 64 95.160156 64 94 C 64 95.160156 55.046875 96.101562 44 96.101562 C 43.863281 96.101562 43.722656 96.101562 43.582031 96.101562 Z M 43.582031 96.101562 "/>
<path style=" stroke:none;fill-rule:nonzero;fill:url(#linear2);" d="M 43.582031 74 C 32.699219 74.035156 23.996094 75.367188 24 77 L 24 88 L 104 88 L 104 77 C 104 75.34375 95.046875 74 84 74 C 72.953125 74 64 75.34375 64 77 C 64 75.34375 55.046875 74 44 74 C 43.863281 74 43.722656 74 43.582031 74 Z M 43.582031 74 "/>
<path style=" stroke:none;fill-rule:nonzero;fill:rgb(92.54902%,80.784315%,33.725491%);fill-opacity:1;" d="M 24 87 L 104 87 L 104 94 L 24 94 Z M 24 87 "/>
</g>
<mask id="mask5">
  <g filter="url(#alpha)">
<rect x="0" y="0" width="16" height="16" style="fill:rgb(0%,0%,0%);fill-opacity:0.994594;stroke:none;"/>
  </g>
</mask>
<radialGradient id="radial1" gradientUnits="userSpaceOnUse" cx="28" cy="117.253197" fx="28" fy="117.253197" r="4" gradientTransform="matrix(0.797905,0.00909879,-0.0201536,1.767336,8.021744,-90.480606)">
<stop offset="0" style="stop-color:rgb(73.333335%,61.960787%,15.294118%);stop-opacity:1;"/>
<stop offset="1" style="stop-color:rgb(35.686275%,29.803923%,7.450981%);stop-opacity:1;"/>
</radialGradient>
<clipPath id="clip6">
  <rect x="0" y="0" width="192" height="152"/>
</clipPath>
<g id="surface1126" clip-path="url(#clip6)">
<path style=" stroke:none;fill-rule:nonzero;fill:url(#radial1);" d="M 24 112 L 24 116 C 24 118.214844 25.785156 120 28 120 C 30.214844 120 32 118.214844 32 116 L 32 112 Z M 24 112 "/>
</g>
<mask id="mask6">
  <g filter="url(#alpha)">
<rect x="0" y="0" width="16" height="16" style="fill:rgb(0%,0%,0%);fill-opacity:0.994594;stroke:none;"/>
  </g>
</mask>
<radialGradient id="radial2" gradientUnits="userSpaceOnUse" cx="28" cy="117.253197" fx="28" fy="117.253197" r="4" gradientTransform="matrix(0.797905,0.00909879,-0.0201536,1.767336,80.021744,-90.480606)">
<stop offset="0" style="stop-color:rgb(73.333335%,61.960787%,15.294118%);stop-opacity:1;"/>
<stop offset="1" style="stop-color:rgb(35.686275%,29.803923%,7.450981%);stop-opacity:1;"/>
</radialGradient>
<clipPath id="clip7">
  <rect x="0" y="0" width="192" height="152"/>
</clipPath>
<g id="surface1129" clip-path="url(#clip7)">
<path style=" stroke:none;fill-rule:nonzero;fill:url(#radial2);" d="M 96 112 L 96 116 C 96 118.214844 97.785156 120 100 120 C 102.214844 120 104 118.214844 104 116 L 104 112 Z M 96 112 "/>
</g>
<mask id="mask7">
  <g filter="url(#alpha)">
<rect x="0" y="0" width="16" height="16" style="fill:rgb(0%,0%,0%);fill-opacity:0.994594;stroke:none;"/>
  </g>
</mask>
<clipPath id="clip8">
  <rect x="0" y="0" width="192" height="152"/>
</clipPath>
<g id="surface1132" clip-path="url(#clip8)">
<path style=" stroke:none;fill-rule:nonzero;fill:rgb(88.627452%,72.941178%,9.803922%);fill-opacity:1;" d="M 114.019531 74 C 119.535156 73.988281 124 69.515625 124 64 L 104 64 C 104 69.523438 108.476562 74 114 74 C 114.007812 74 114.011719 74 114.019531 74 Z M 114.019531 74 "/>
</g>
<mask id="mask8">
  <g filter="url(#alpha)">
<rect x="0" y="0" width="16" height="16" style="fill:rgb(0%,0%,0%);fill-opacity:0.994594;stroke:none;"/>
  </g>
</mask>
<radialGradient id="radial3" gradientUnits="userSpaceOnUse" cx="14" cy="236" fx="14" fy="236" r="10" gradientTransform="matrix(1.26511,0,0,1,-3.711533,-172.000015)">
<stop offset="0" style="stop-color:rgb(88.627452%,72.941178%,9.803922%);stop-opacity:1;"/>
<stop offset="0.740418" style="stop-color:rgb(88.627452%,72.941178%,9.803922%);stop-opacity:1;"/>
<stop offset="1" style="stop-color:rgb(97.254902%,92.941177%,74.901962%);stop-opacity:1;"/>
</radialGradient>
<clipPath id="clip9">
  <rect x="0" y="0" width="192" height="152"/>
</clipPath>
<g id="surface1135" clip-path="url(#clip9)">
<path style=" stroke:none;fill-rule:nonzero;fill:url(#radial3);" d="M 5.339844 69 C 3.238281 65.359375 3.636719 60.792969 6.339844 57.570312 C 9.042969 54.351562 13.46875 53.164062 17.421875 54.601562 C 21.371094 56.039062 24 59.796875 24 64 "/>
</g>
<mask id="mask9">
  <g filter="url(#alpha)">
<rect x="0" y="0" width="16" height="16" style="fill:rgb(0%,0%,0%);fill-opacity:0.994594;stroke:none;"/>
  </g>
</mask>
<clipPath id="clip10">
  <rect x="0" y="0" width="192" height="152"/>
</clipPath>
<g id="surface1138" clip-path="url(#clip10)">
<path style=" stroke:none;fill-rule:nonzero;fill:rgb(88.627452%,72.941178%,9.803922%);fill-opacity:1;" d="M 14.019531 74 C 19.535156 73.988281 24 69.515625 24 64 L 4 64 C 4 69.523438 8.476562 74 14 74 C 14.007812 74 14.011719 74 14.019531 74 Z M 14.019531 74 "/>
</g>
<mask id="mask10">
  <g filter="url(#alpha)">
<rect x="0" y="0" width="16" height="16" style="fill:rgb(0%,0%,0%);fill-opacity:0.994594;stroke:none;"/>
  </g>
</mask>
<clipPath id="clip11">
  <rect x="0" y="0" width="192" height="152"/>
</clipPath>
<g id="surface1141" clip-path="url(#clip11)">
<path style=" stroke:none;fill-rule:nonzero;fill:rgb(88.627452%,72.941178%,9.803922%);fill-opacity:1;" d="M 115.996094 63.167969 L 116 98 L 104 98 L 104.007812 63.167969 Z M 115.996094 63.167969 "/>
</g>
<mask id="mask11">
  <g filter="url(#alpha)">
<rect x="0" y="0" width="16" height="16" style="fill:rgb(0%,0%,0%);fill-opacity:0.994594;stroke:none;"/>
  </g>
</mask>
<clipPath id="clip12">
  <rect x="0" y="0" width="192" height="152"/>
</clipPath>
<g id="surface1144" clip-path="url(#clip12)">
<path style="fill-rule:nonzero;fill:rgb(67.450982%,55.686277%,7.450981%);fill-opacity:1;stroke-width:3;stroke-linecap:butt;stroke-linejoin:miter;stroke:rgb(35.686275%,29.803923%,7.450981%);stroke-opacity:1;stroke-miterlimit:4;" d="M 8.000008 196 L 16.000008 204 " transform="matrix(0.5,0,0,0.5,57.999996,-66)"/>
<path style="fill-rule:nonzero;fill:rgb(67.450982%,55.686277%,7.450981%);fill-opacity:1;stroke-width:3;stroke-linecap:butt;stroke-linejoin:miter;stroke:rgb(35.686275%,29.803923%,7.450981%);stroke-opacity:1;stroke-miterlimit:4;" d="M 8.000008 204 L 16.000008 196 " transform="matrix(0.5,0,0,0.5,57.999996,-66)"/>
<path style="fill-rule:nonzero;fill:rgb(67.450982%,55.686277%,7.450981%);fill-opacity:1;stroke-width:3;stroke-linecap:butt;stroke-linejoin:miter;stroke:rgb(35.686275%,29.803923%,7.450981%);stroke-opacity:1;stroke-miterlimit:4;" d="M 8.000008 196 L 16.000008 204 " transform="matrix(0.5,0,0,0.5,57.999996,-66)"/>
</g>
<mask id="mask12">
  <g filter="url(#alpha)">
<rect x="0" y="0" width="16" height="16" style="fill:rgb(0%,0%,0%);fill-opacity:0.994594;stroke:none;"/>
  </g>
</mask>
<clipPath id="clip13">
  <rect x="0" y="0" width="192" height="152"/>
</clipPath>
<g id="surface1147" clip-path="url(#clip13)">
<path style="fill-rule:nonzero;fill:rgb(67.450982%,55.686277%,7.450981%);fill-opacity:1;stroke-width:3;stroke-linecap:butt;stroke-linejoin:miter;stroke:rgb(35.686275%,29.803923%,7.450981%);stroke-opacity:1;stroke-miterlimit:4;" d="M 8 196 L 16 204 " transform="matrix(0.5,0,0,0.5,78,-54)"/>
<path style="fill-rule:nonzero;fill:rgb(67.450982%,55.686277%,7.450981%);fill-opacity:1;stroke-width:3;stroke-linecap:butt;stroke-linejoin:miter;stroke:rgb(35.686275%,29.803923%,7.450981%);stroke-opacity:1;stroke-miterlimit:4;" d="M 8 204 L 16 196 " transform="matrix(0.5,0,0,0.5,78,-54)"/>
<path style="fill-rule:nonzero;fill:rgb(67.450982%,55.686277%,7.450981%);fill-opacity:1;stroke-width:3;stroke-linecap:butt;stroke-linejoin:miter;stroke:rgb(35.686275%,29.803923%,7.450981%);stroke-opacity:1;stroke-miterlimit:4;" d="M 8 196 L 16 204 " transform="matrix(0.5,0,0,0.5,78,-54)"/>
</g>
<mask id="mask13">
  <g filter="url(#alpha)">
<rect x="0" y="0" width="16" height="16" style="fill:rgb(0%,0%,0%);fill-opacity:0.994594;stroke:none;"/>
  </g>
</mask>
<clipPath id="clip14">
  <rect x="0" y="0" width="192" height="152"/>
</clipPath>
<g id="surface1150" clip-path="url(#clip14)">
<path style="fill-rule:nonzero;fill:rgb(67.450982%,55.686277%,7.450981%);fill-opacity:1;stroke-width:3;stroke-linecap:butt;stroke-linejoin:miter;stroke:rgb(35.686275%,29.803923%,7.450981%);stroke-opacity:1;stroke-miterlimit:4;" d="M 8.000008 196 L 16.000008 204 " transform="matrix(0.5,0,0,0.5,57.999996,-42)"/>
<path style="fill-rule:nonzero;fill:rgb(67.450982%,55.686277%,7.450981%);fill-opacity:1;stroke-width:3;stroke-linecap:butt;stroke-linejoin:miter;stroke:rgb(35.686275%,29.803923%,7.450981%);stroke-opacity:1;stroke-miterlimit:4;" d="M 8.000008 204 L 16.000008 196 " transform="matrix(0.5,0,0,0.5,57.999996,-42)"/>
<path style="fill-rule:nonzero;fill:rgb(67.450982%,55.686277%,7.450981%);fill-opacity:1;stroke-width:3;stroke-linecap:butt;stroke-linejoin:miter;stroke:rgb(35.686275%,29.803923%,7.450981%);stroke-opacity:1;stroke-miterlimit:4;" d="M 8.000008 196 L 16.000008 204 " transform="matrix(0.5,0,0,0.5,57.999996,-42)"/>
</g>
<mask id="mask14">
  <g filter="url(#alpha)">
<rect x="0" y="0" width="16" height="16" style="fill:rgb(0%,0%,0%);fill-opacity:0.994594;stroke:none;"/>
  </g>
</mask>
<clipPath id="clip15">
  <rect x="0" y="0" width="192" height="152"/>
</clipPath>
<g id="surface1153" clip-path="url(#clip15)">
<path style="fill-rule:nonzero;fill:rgb(67.450982%,55.686277%,7.450981%);fill-opacity:1;stroke-width:3;stroke-linecap:butt;stroke-linejoin:miter;stroke:rgb(35.686275%,29.803923%,7.450981%);stroke-opacity:1;stroke-miterlimit:4;" d="M 8.000004 196 L 16.000004 204 " transform="matrix(0.5,0,0,0.5,37.999998,-54)"/>
<path style="fill-rule:nonzero;fill:rgb(67.450982%,55.686277%,7.450981%);fill-opacity:1;stroke-width:3;stroke-linecap:butt;stroke-linejoin:miter;stroke:rgb(35.686275%,29.803923%,7.450981%);stroke-opacity:1;stroke-miterlimit:4;" d="M 8.000004 204 L 16.000004 196 " transform="matrix(0.5,0,0,0.5,37.999998,-54)"/>
<path style="fill-rule:nonzero;fill:rgb(67.450982%,55.686277%,7.450981%);fill-opacity:1;stroke-width:3;stroke-linecap:butt;stroke-linejoin:miter;stroke:rgb(35.686275%,29.803923%,7.450981%);stroke-opacity:1;stroke-miterlimit:4;" d="M 8.000004 196 L 16.000004 204 " transform="matrix(0.5,0,0,0.5,37.999998,-54)"/>
</g>
</defs>
<g id="surface1107">
<use xlink:href="#surface1111" transform="matrix(1,0,0,1,-168,-16)" mask="url(#mask0)"/>
<use xlink:href="#surface1114" transform="matrix(1,0,0,1,-168,-16)" mask="url(#mask1)"/>
<use xlink:href="#surface1117" transform="matrix(1,0,0,1,-168,-16)" mask="url(#mask2)"/>
<use xlink:href="#surface1120" transform="matrix(1,0,0,1,-168,-16)" mask="url(#mask3)"/>
<use xlink:href="#surface1123" transform="matrix(1,0,0,1,-168,-16)" mask="url(#mask4)"/>
<use xlink:href="#surface1126" transform="matrix(1,0,0,1,-168,-16)" mask="url(#mask5)"/>
<use xlink:href="#surface1129" transform="matrix(1,0,0,1,-168,-16)" mask="url(#mask6)"/>
<use xlink:href="#surface1132" transform="matrix(1,0,0,1,-168,-16)" mask="url(#mask7)"/>
<use xlink:href="#surface1135" transform="matrix(1,0,0,1,-168,-16)" mask="url(#mask8)"/>
<use xlink:href="#surface1138" transform="matrix(1,0,0,1,-168,-16)" mask="url(#mask9)"/>
<use xlink:href="#surface1141" transform="matrix(1,0,0,1,-168,-16)" mask="url(#mask10)"/>
<use xlink:href="#surface1144" transform="matrix(1,0,0,1,-168,-16)" mask="url(#mask11)"/>
<use xlink:href="#surface1147" transform="matrix(1,0,0,1,-168,-16)" mask="url(#mask12)"/>
<use xlink:href="#surface1150" transform="matrix(1,0,0,1,-168,-16)" mask="url(#mask13)"/>
<use xlink:href="#surface1153" transform="matrix(1,0,0,1,-168,-16)" mask="url(#mask14)"/>
<path style=" stroke:none;fill-rule:nonzero;fill:rgb(0%,0%,0%);fill-opacity:1;" d="M 7.992188 2 C 5 2 4 3.800781 4 4.800781 L 4 12 L 12 12 L 12 4.800781 C 12 3.800781 11 2 8 2 Z M 7.992188 2 "/>
<path style=" stroke:none;fill-rule:nonzero;fill:rgb(0%,0%,0%);fill-opacity:1;" d="M 4 13 L 12 13 L 12 15 L 4 15 Z M 4 13 "/>
<path style=" stroke:none;fill-rule:nonzero;fill:rgb(0%,0%,0%);fill-opacity:1;" d="M 13 9 L 14 9 L 14 15 L 13 15 Z M 13 9 "/>
<path style=" stroke:none;fill-rule:nonzero;fill:rgb(0%,0%,0%);fill-opacity:1;" d="M 16 9 C 16 9.828125 15.328125 10.5 14.5 10.5 C 13.671875 10.5 13 9.828125 13 9 C 13 8.171875 13.671875 7.5 14.5 7.5 C 15.328125 7.5 16 8.171875 16 9 Z M 16 9 "/>
<path style=" stroke:none;fill-rule:nonzero;fill:rgb(0%,0%,0%);fill-opacity:1;" d="M 3 9 L 2 9 L 2 15 L 3 15 Z M 3 9 "/>
<path style=" stroke:none;fill-rule:nonzero;fill:rgb(0%,0%,0%);fill-opacity:1;" d="M 0 9 C 0 9.828125 0.671875 10.5 1.5 10.5 C 2.328125 10.5 3 9.828125 3 9 C 3 8.171875 2.328125 7.5 1.5 7.5 C 0.671875 7.5 0 8.171875 0 9 Z M 0 9 "/>
</g>
</svg>
