<?xml version="1.0" encoding="UTF-8"?>
<svg xmlns="http://www.w3.org/2000/svg" xmlns:xlink="http://www.w3.org/1999/xlink" width="128px" height="128px" viewBox="0 0 128 128" version="1.1">
<defs>
<filter id="alpha" filterUnits="objectBoundingBox" x="0%" y="0%" width="100%" height="100%">
  <feColorMatrix type="matrix" in="SourceGraphic" values="0 0 0 0 1 0 0 0 0 1 0 0 0 0 1 0 0 0 1 0"/>
</filter>
<mask id="mask0">
  <g filter="url(#alpha)">
<rect x="0" y="0" width="128" height="128" style="fill:rgb(0%,0%,0%);fill-opacity:0.994594;stroke:none;"/>
  </g>
</mask>
<linearGradient id="linear0" gradientUnits="userSpaceOnUse" x1="4" y1="72.999802" x2="24" y2="72.999802" gradientTransform="matrix(-1,0,0,1,128.000008,-4.000008)">
<stop offset="0" style="stop-color:rgb(72.941178%,59.607846%,7.843138%);stop-opacity:1;"/>
<stop offset="0.1" style="stop-color:rgb(85.09804%,73.725492%,28.627452%);stop-opacity:1;"/>
<stop offset="0.3" style="stop-color:rgb(72.941178%,59.607846%,7.843138%);stop-opacity:1;"/>
<stop offset="0.928571" style="stop-color:rgb(72.941178%,59.607846%,7.843138%);stop-opacity:1;"/>
<stop offset="0.964286" style="stop-color:rgb(85.09804%,73.725492%,28.627452%);stop-opacity:1;"/>
<stop offset="1" style="stop-color:rgb(72.941178%,59.607846%,7.843138%);stop-opacity:1;"/>
</linearGradient>
<clipPath id="clip1">
  <rect x="0" y="0" width="192" height="152"/>
</clipPath>
<g id="surface756" clip-path="url(#clip1)">
<path style=" stroke:none;fill-rule:nonzero;fill:url(#linear0);" d="M 124 64 L 124 68 C 124 70.957031 122.691406 73.761719 120.429688 75.660156 C 117.449219 78.160156 113.296875 78.707031 109.773438 77.0625 C 106.25 75.421875 104 71.886719 104 68 L 104 64 Z M 124 64 "/>
</g>
<mask id="mask1">
  <g filter="url(#alpha)">
<rect x="0" y="0" width="128" height="128" style="fill:rgb(0%,0%,0%);fill-opacity:0.994594;stroke:none;"/>
  </g>
</mask>
<linearGradient id="linear1" gradientUnits="userSpaceOnUse" x1="4" y1="72.999802" x2="24" y2="72.999802" gradientTransform="matrix(1,0,0,1,0,-4.000008)">
<stop offset="0" style="stop-color:rgb(72.941178%,59.607846%,7.843138%);stop-opacity:1;"/>
<stop offset="0.1" style="stop-color:rgb(85.09804%,73.725492%,28.627452%);stop-opacity:1;"/>
<stop offset="0.3" style="stop-color:rgb(72.941178%,59.607846%,7.843138%);stop-opacity:1;"/>
<stop offset="0.928571" style="stop-color:rgb(72.941178%,59.607846%,7.843138%);stop-opacity:1;"/>
<stop offset="0.964286" style="stop-color:rgb(85.09804%,73.725492%,28.627452%);stop-opacity:1;"/>
<stop offset="1" style="stop-color:rgb(72.941178%,59.607846%,7.843138%);stop-opacity:1;"/>
</linearGradient>
<clipPath id="clip2">
  <rect x="0" y="0" width="192" height="152"/>
</clipPath>
<g id="surface759" clip-path="url(#clip2)">
<path style=" stroke:none;fill-rule:nonzero;fill:url(#linear1);" d="M 4 64 L 4 68 C 4 70.957031 5.308594 73.761719 7.574219 75.660156 C 10.550781 78.160156 14.703125 78.707031 18.226562 77.0625 C 21.75 75.421875 24 71.886719 24 68 L 24 64 Z M 4 64 "/>
</g>
<linearGradient id="linear2" gradientUnits="userSpaceOnUse" x1="8" y1="275" x2="120" y2="275" gradientTransform="matrix(0.928572,0,0,1,4.571442,-172.000015)">
<stop offset="0" style="stop-color:rgb(72.941178%,59.607846%,7.843138%);stop-opacity:1;"/>
<stop offset="0.0357143" style="stop-color:rgb(85.09804%,73.725492%,28.627452%);stop-opacity:1;"/>
<stop offset="0.0714286" style="stop-color:rgb(72.941178%,59.607846%,7.843138%);stop-opacity:1;"/>
<stop offset="0.928571" style="stop-color:rgb(72.941178%,59.607846%,7.843138%);stop-opacity:1;"/>
<stop offset="0.964286" style="stop-color:rgb(85.09804%,73.725492%,28.627452%);stop-opacity:1;"/>
<stop offset="1" style="stop-color:rgb(72.941178%,59.607846%,7.843138%);stop-opacity:1;"/>
</linearGradient>
<radialGradient id="radial0" gradientUnits="userSpaceOnUse" cx="56" cy="215.691772" fx="56" fy="215.691772" r="40" gradientTransform="matrix(1.3,0.000000151785,-0.0000000939099,0.821257,-8.799973,-135.138412)">
<stop offset="0" style="stop-color:rgb(91.37255%,77.64706%,23.137255%);stop-opacity:1;"/>
<stop offset="0.8" style="stop-color:rgb(91.37255%,77.64706%,23.137255%);stop-opacity:1;"/>
<stop offset="1" style="stop-color:rgb(97.254902%,92.156863%,73.333335%);stop-opacity:1;"/>
</radialGradient>
<radialGradient id="radial1" gradientUnits="userSpaceOnUse" cx="55.999996" cy="221.000015" fx="55.999996" fy="221.000015" r="40" gradientTransform="matrix(1.3,-0.000000450798,0.00000161691,4.625,-8.800354,-957.125107)">
<stop offset="0" style="stop-color:rgb(91.37255%,77.64706%,23.137255%);stop-opacity:1;"/>
<stop offset="0.692308" style="stop-color:rgb(91.37255%,77.64706%,23.137255%);stop-opacity:1;"/>
<stop offset="1" style="stop-color:rgb(97.254902%,92.156863%,73.333335%);stop-opacity:1;"/>
</radialGradient>
<mask id="mask2">
  <g filter="url(#alpha)">
<rect x="0" y="0" width="128" height="128" style="fill:rgb(0%,0%,0%);fill-opacity:0.994594;stroke:none;"/>
  </g>
</mask>
<radialGradient id="radial2" gradientUnits="userSpaceOnUse" cx="14" cy="236" fx="14" fy="236" r="10" gradientTransform="matrix(1.26511,0,0,1,96.288467,-172.000015)">
<stop offset="0" style="stop-color:rgb(88.627452%,72.941178%,9.803922%);stop-opacity:1;"/>
<stop offset="0.740418" style="stop-color:rgb(88.627452%,72.941178%,9.803922%);stop-opacity:1;"/>
<stop offset="1" style="stop-color:rgb(97.254902%,92.941177%,74.901962%);stop-opacity:1;"/>
</radialGradient>
<clipPath id="clip3">
  <rect x="0" y="0" width="192" height="152"/>
</clipPath>
<g id="surface762" clip-path="url(#clip3)">
<path style=" stroke:none;fill-rule:nonzero;fill:url(#radial2);" d="M 105.339844 69 C 103.238281 65.359375 103.636719 60.792969 106.339844 57.570312 C 109.042969 54.351562 113.46875 53.164062 117.421875 54.601562 C 121.371094 56.039062 124 59.796875 124 64 "/>
</g>
<mask id="mask3">
  <g filter="url(#alpha)">
<rect x="0" y="0" width="128" height="128" style="fill:rgb(0%,0%,0%);fill-opacity:0.994594;stroke:none;"/>
  </g>
</mask>
<clipPath id="clip4">
  <rect x="0" y="0" width="192" height="152"/>
</clipPath>
<g id="surface765" clip-path="url(#clip4)">
<path style=" stroke:none;fill-rule:nonzero;fill:rgb(88.627452%,72.941178%,9.803922%);fill-opacity:1;" d="M 12.003906 63.167969 L 12 98 L 24 98 L 23.992188 63.167969 Z M 12.003906 63.167969 "/>
</g>
<linearGradient id="linear3" gradientUnits="userSpaceOnUse" x1="48" y1="246" x2="48" y2="206" gradientTransform="matrix(1,0,0,1,8,-156)">
<stop offset="0" style="stop-color:rgb(88.627452%,72.941178%,9.803922%);stop-opacity:0.996078;"/>
<stop offset="1" style="stop-color:rgb(91.37255%,77.64706%,23.137255%);stop-opacity:0;"/>
</linearGradient>
<mask id="mask4">
  <g filter="url(#alpha)">
<rect x="0" y="0" width="128" height="128" style="fill:rgb(0%,0%,0%);fill-opacity:0.994594;stroke:none;"/>
  </g>
</mask>
<linearGradient id="linear4" gradientUnits="userSpaceOnUse" x1="44" y1="240" x2="44" y2="244" gradientTransform="matrix(1,0,0,1,0,-166.000015)">
<stop offset="0" style="stop-color:rgb(97.254902%,93.333334%,76.47059%);stop-opacity:1;"/>
<stop offset="1" style="stop-color:rgb(92.54902%,80.784315%,33.725491%);stop-opacity:1;"/>
</linearGradient>
<clipPath id="clip5">
  <rect x="0" y="0" width="192" height="152"/>
</clipPath>
<g id="surface768" clip-path="url(#clip5)">
<path style=" stroke:none;fill-rule:nonzero;fill:rgb(72.941178%,59.607846%,7.843138%);fill-opacity:1;" d="M 43.582031 96.101562 C 32.699219 96.078125 23.996094 95.144531 24 94 L 24 91 L 104 91 L 104 94 C 104 95.160156 95.046875 96.101562 84 96.101562 C 72.953125 96.101562 64 95.160156 64 94 C 64 95.160156 55.046875 96.101562 44 96.101562 C 43.863281 96.101562 43.722656 96.101562 43.582031 96.101562 Z M 43.582031 96.101562 "/>
<path style=" stroke:none;fill-rule:nonzero;fill:url(#linear4);" d="M 43.582031 74 C 32.699219 74.035156 23.996094 75.367188 24 77 L 24 88 L 104 88 L 104 77 C 104 75.34375 95.046875 74 84 74 C 72.953125 74 64 75.34375 64 77 C 64 75.34375 55.046875 74 44 74 C 43.863281 74 43.722656 74 43.582031 74 Z M 43.582031 74 "/>
<path style=" stroke:none;fill-rule:nonzero;fill:rgb(92.54902%,80.784315%,33.725491%);fill-opacity:1;" d="M 24 87 L 104 87 L 104 94 L 24 94 Z M 24 87 "/>
</g>
<mask id="mask5">
  <g filter="url(#alpha)">
<rect x="0" y="0" width="128" height="128" style="fill:rgb(0%,0%,0%);fill-opacity:0.994594;stroke:none;"/>
  </g>
</mask>
<radialGradient id="radial3" gradientUnits="userSpaceOnUse" cx="28" cy="117.253197" fx="28" fy="117.253197" r="4" gradientTransform="matrix(0.797905,0.00909879,-0.0201536,1.767336,8.021744,-90.480606)">
<stop offset="0" style="stop-color:rgb(73.333335%,61.960787%,15.294118%);stop-opacity:1;"/>
<stop offset="1" style="stop-color:rgb(35.686275%,29.803923%,7.450981%);stop-opacity:1;"/>
</radialGradient>
<clipPath id="clip6">
  <rect x="0" y="0" width="192" height="152"/>
</clipPath>
<g id="surface771" clip-path="url(#clip6)">
<path style=" stroke:none;fill-rule:nonzero;fill:url(#radial3);" d="M 24 112 L 24 116 C 24 118.214844 25.785156 120 28 120 C 30.214844 120 32 118.214844 32 116 L 32 112 Z M 24 112 "/>
</g>
<mask id="mask6">
  <g filter="url(#alpha)">
<rect x="0" y="0" width="128" height="128" style="fill:rgb(0%,0%,0%);fill-opacity:0.994594;stroke:none;"/>
  </g>
</mask>
<radialGradient id="radial4" gradientUnits="userSpaceOnUse" cx="28" cy="117.253197" fx="28" fy="117.253197" r="4" gradientTransform="matrix(0.797905,0.00909879,-0.0201536,1.767336,80.021744,-90.480606)">
<stop offset="0" style="stop-color:rgb(73.333335%,61.960787%,15.294118%);stop-opacity:1;"/>
<stop offset="1" style="stop-color:rgb(35.686275%,29.803923%,7.450981%);stop-opacity:1;"/>
</radialGradient>
<clipPath id="clip7">
  <rect x="0" y="0" width="192" height="152"/>
</clipPath>
<g id="surface774" clip-path="url(#clip7)">
<path style=" stroke:none;fill-rule:nonzero;fill:url(#radial4);" d="M 96 112 L 96 116 C 96 118.214844 97.785156 120 100 120 C 102.214844 120 104 118.214844 104 116 L 104 112 Z M 96 112 "/>
</g>
<mask id="mask7">
  <g filter="url(#alpha)">
<rect x="0" y="0" width="128" height="128" style="fill:rgb(0%,0%,0%);fill-opacity:0.994594;stroke:none;"/>
  </g>
</mask>
<clipPath id="clip8">
  <rect x="0" y="0" width="192" height="152"/>
</clipPath>
<g id="surface777" clip-path="url(#clip8)">
<path style=" stroke:none;fill-rule:nonzero;fill:rgb(88.627452%,72.941178%,9.803922%);fill-opacity:1;" d="M 114.019531 74 C 119.535156 73.988281 124 69.515625 124 64 L 104 64 C 104 69.523438 108.476562 74 114 74 C 114.007812 74 114.011719 74 114.019531 74 Z M 114.019531 74 "/>
</g>
<mask id="mask8">
  <g filter="url(#alpha)">
<rect x="0" y="0" width="128" height="128" style="fill:rgb(0%,0%,0%);fill-opacity:0.994594;stroke:none;"/>
  </g>
</mask>
<radialGradient id="radial5" gradientUnits="userSpaceOnUse" cx="14" cy="236" fx="14" fy="236" r="10" gradientTransform="matrix(1.26511,0,0,1,-3.711533,-172.000015)">
<stop offset="0" style="stop-color:rgb(88.627452%,72.941178%,9.803922%);stop-opacity:1;"/>
<stop offset="0.740418" style="stop-color:rgb(88.627452%,72.941178%,9.803922%);stop-opacity:1;"/>
<stop offset="1" style="stop-color:rgb(97.254902%,92.941177%,74.901962%);stop-opacity:1;"/>
</radialGradient>
<clipPath id="clip9">
  <rect x="0" y="0" width="192" height="152"/>
</clipPath>
<g id="surface780" clip-path="url(#clip9)">
<path style=" stroke:none;fill-rule:nonzero;fill:url(#radial5);" d="M 5.339844 69 C 3.238281 65.359375 3.636719 60.792969 6.339844 57.570312 C 9.042969 54.351562 13.46875 53.164062 17.421875 54.601562 C 21.371094 56.039062 24 59.796875 24 64 "/>
</g>
<mask id="mask9">
  <g filter="url(#alpha)">
<rect x="0" y="0" width="128" height="128" style="fill:rgb(0%,0%,0%);fill-opacity:0.994594;stroke:none;"/>
  </g>
</mask>
<clipPath id="clip10">
  <rect x="0" y="0" width="192" height="152"/>
</clipPath>
<g id="surface783" clip-path="url(#clip10)">
<path style=" stroke:none;fill-rule:nonzero;fill:rgb(88.627452%,72.941178%,9.803922%);fill-opacity:1;" d="M 14.019531 74 C 19.535156 73.988281 24 69.515625 24 64 L 4 64 C 4 69.523438 8.476562 74 14 74 C 14.007812 74 14.011719 74 14.019531 74 Z M 14.019531 74 "/>
</g>
<radialGradient id="radial6" gradientUnits="userSpaceOnUse" cx="106" cy="218.666687" fx="106" fy="218.666687" r="3.999986" gradientTransform="matrix(0.750003,0,0,0.750004,-65.500351,-101.000839)">
<stop offset="0" style="stop-color:rgb(73.333335%,61.960787%,15.294118%);stop-opacity:1;"/>
<stop offset="1" style="stop-color:rgb(35.686275%,29.803923%,7.450981%);stop-opacity:1;"/>
</radialGradient>
<mask id="mask10">
  <g filter="url(#alpha)">
<rect x="0" y="0" width="128" height="128" style="fill:rgb(0%,0%,0%);fill-opacity:0.994594;stroke:none;"/>
  </g>
</mask>
<clipPath id="clip11">
  <rect x="0" y="0" width="192" height="152"/>
</clipPath>
<g id="surface786" clip-path="url(#clip11)">
<path style=" stroke:none;fill-rule:nonzero;fill:rgb(88.627452%,72.941178%,9.803922%);fill-opacity:1;" d="M 115.996094 63.167969 L 116 98 L 104 98 L 104.007812 63.167969 Z M 115.996094 63.167969 "/>
</g>
<radialGradient id="radial7" gradientUnits="userSpaceOnUse" cx="106" cy="218.666687" fx="106" fy="218.666687" r="3.999986" gradientTransform="matrix(0.750003,0,0,0.750004,34.499649,-101.000839)">
<stop offset="0" style="stop-color:rgb(73.333335%,61.960787%,15.294118%);stop-opacity:1;"/>
<stop offset="1" style="stop-color:rgb(35.686275%,29.803923%,7.450981%);stop-opacity:1;"/>
</radialGradient>
<mask id="mask11">
  <g filter="url(#alpha)">
<rect x="0" y="0" width="128" height="128" style="fill:rgb(0%,0%,0%);fill-opacity:0.994594;stroke:none;"/>
  </g>
</mask>
<clipPath id="clip12">
  <rect x="0" y="0" width="192" height="152"/>
</clipPath>
<g id="surface789" clip-path="url(#clip12)">
<path style="fill-rule:nonzero;fill:rgb(67.450982%,55.686277%,7.450981%);fill-opacity:1;stroke-width:3;stroke-linecap:butt;stroke-linejoin:miter;stroke:rgb(35.686275%,29.803923%,7.450981%);stroke-opacity:1;stroke-miterlimit:4;" d="M 8.000008 196 L 16.000008 204 " transform="matrix(0.5,0,0,0.5,57.999996,-66)"/>
<path style="fill-rule:nonzero;fill:rgb(67.450982%,55.686277%,7.450981%);fill-opacity:1;stroke-width:3;stroke-linecap:butt;stroke-linejoin:miter;stroke:rgb(35.686275%,29.803923%,7.450981%);stroke-opacity:1;stroke-miterlimit:4;" d="M 8.000008 204 L 16.000008 196 " transform="matrix(0.5,0,0,0.5,57.999996,-66)"/>
<path style="fill-rule:nonzero;fill:rgb(67.450982%,55.686277%,7.450981%);fill-opacity:1;stroke-width:3;stroke-linecap:butt;stroke-linejoin:miter;stroke:rgb(35.686275%,29.803923%,7.450981%);stroke-opacity:1;stroke-miterlimit:4;" d="M 8.000008 196 L 16.000008 204 " transform="matrix(0.5,0,0,0.5,57.999996,-66)"/>
</g>
<mask id="mask12">
  <g filter="url(#alpha)">
<rect x="0" y="0" width="128" height="128" style="fill:rgb(0%,0%,0%);fill-opacity:0.994594;stroke:none;"/>
  </g>
</mask>
<clipPath id="clip13">
  <rect x="0" y="0" width="192" height="152"/>
</clipPath>
<g id="surface792" clip-path="url(#clip13)">
<path style="fill-rule:nonzero;fill:rgb(67.450982%,55.686277%,7.450981%);fill-opacity:1;stroke-width:3;stroke-linecap:butt;stroke-linejoin:miter;stroke:rgb(35.686275%,29.803923%,7.450981%);stroke-opacity:1;stroke-miterlimit:4;" d="M 8 196 L 16 204 " transform="matrix(0.5,0,0,0.5,78,-54)"/>
<path style="fill-rule:nonzero;fill:rgb(67.450982%,55.686277%,7.450981%);fill-opacity:1;stroke-width:3;stroke-linecap:butt;stroke-linejoin:miter;stroke:rgb(35.686275%,29.803923%,7.450981%);stroke-opacity:1;stroke-miterlimit:4;" d="M 8 204 L 16 196 " transform="matrix(0.5,0,0,0.5,78,-54)"/>
<path style="fill-rule:nonzero;fill:rgb(67.450982%,55.686277%,7.450981%);fill-opacity:1;stroke-width:3;stroke-linecap:butt;stroke-linejoin:miter;stroke:rgb(35.686275%,29.803923%,7.450981%);stroke-opacity:1;stroke-miterlimit:4;" d="M 8 196 L 16 204 " transform="matrix(0.5,0,0,0.5,78,-54)"/>
</g>
<mask id="mask13">
  <g filter="url(#alpha)">
<rect x="0" y="0" width="128" height="128" style="fill:rgb(0%,0%,0%);fill-opacity:0.994594;stroke:none;"/>
  </g>
</mask>
<clipPath id="clip14">
  <rect x="0" y="0" width="192" height="152"/>
</clipPath>
<g id="surface795" clip-path="url(#clip14)">
<path style="fill-rule:nonzero;fill:rgb(67.450982%,55.686277%,7.450981%);fill-opacity:1;stroke-width:3;stroke-linecap:butt;stroke-linejoin:miter;stroke:rgb(35.686275%,29.803923%,7.450981%);stroke-opacity:1;stroke-miterlimit:4;" d="M 8.000008 196 L 16.000008 204 " transform="matrix(0.5,0,0,0.5,57.999996,-42)"/>
<path style="fill-rule:nonzero;fill:rgb(67.450982%,55.686277%,7.450981%);fill-opacity:1;stroke-width:3;stroke-linecap:butt;stroke-linejoin:miter;stroke:rgb(35.686275%,29.803923%,7.450981%);stroke-opacity:1;stroke-miterlimit:4;" d="M 8.000008 204 L 16.000008 196 " transform="matrix(0.5,0,0,0.5,57.999996,-42)"/>
<path style="fill-rule:nonzero;fill:rgb(67.450982%,55.686277%,7.450981%);fill-opacity:1;stroke-width:3;stroke-linecap:butt;stroke-linejoin:miter;stroke:rgb(35.686275%,29.803923%,7.450981%);stroke-opacity:1;stroke-miterlimit:4;" d="M 8.000008 196 L 16.000008 204 " transform="matrix(0.5,0,0,0.5,57.999996,-42)"/>
</g>
<mask id="mask14">
  <g filter="url(#alpha)">
<rect x="0" y="0" width="128" height="128" style="fill:rgb(0%,0%,0%);fill-opacity:0.994594;stroke:none;"/>
  </g>
</mask>
<clipPath id="clip15">
  <rect x="0" y="0" width="192" height="152"/>
</clipPath>
<g id="surface798" clip-path="url(#clip15)">
<path style="fill-rule:nonzero;fill:rgb(67.450982%,55.686277%,7.450981%);fill-opacity:1;stroke-width:3;stroke-linecap:butt;stroke-linejoin:miter;stroke:rgb(35.686275%,29.803923%,7.450981%);stroke-opacity:1;stroke-miterlimit:4;" d="M 8.000004 196 L 16.000004 204 " transform="matrix(0.5,0,0,0.5,37.999998,-54)"/>
<path style="fill-rule:nonzero;fill:rgb(67.450982%,55.686277%,7.450981%);fill-opacity:1;stroke-width:3;stroke-linecap:butt;stroke-linejoin:miter;stroke:rgb(35.686275%,29.803923%,7.450981%);stroke-opacity:1;stroke-miterlimit:4;" d="M 8.000004 204 L 16.000004 196 " transform="matrix(0.5,0,0,0.5,37.999998,-54)"/>
<path style="fill-rule:nonzero;fill:rgb(67.450982%,55.686277%,7.450981%);fill-opacity:1;stroke-width:3;stroke-linecap:butt;stroke-linejoin:miter;stroke:rgb(35.686275%,29.803923%,7.450981%);stroke-opacity:1;stroke-miterlimit:4;" d="M 8.000004 196 L 16.000004 204 " transform="matrix(0.5,0,0,0.5,37.999998,-54)"/>
</g>
</defs>
<g id="surface752">
<use xlink:href="#surface756" mask="url(#mask0)"/>
<use xlink:href="#surface759" mask="url(#mask1)"/>
<path style=" stroke:none;fill-rule:nonzero;fill:url(#linear2);" d="M 19.429688 90 L 108.570312 90 C 112.675781 90 116 93.582031 116 98 L 116 108 C 116 112.417969 112.675781 116 108.570312 116 L 19.429688 116 C 15.324219 116 12 112.417969 12 108 L 12 98 C 12 93.582031 15.324219 90 19.429688 90 Z M 19.429688 90 "/>
<path style=" stroke:none;fill-rule:nonzero;fill:url(#radial0);" d="M 63.941406 8 C 40 8 24 20 24 44 L 64 53 L 104 44 C 104 20 88 8 64 8 Z M 63.941406 8 "/>
<path style=" stroke:none;fill-rule:nonzero;fill:rgb(88.627452%,72.941178%,9.803922%);fill-opacity:1;" d="M 19.429688 90 L 108.570312 90 C 112.675781 90 116 93.582031 116 98 L 116 100 C 116 104.417969 112.675781 108 108.570312 108 L 19.429688 108 C 15.324219 108 12 104.417969 12 100 L 12 98 C 12 93.582031 15.324219 90 19.429688 90 Z M 19.429688 90 "/>
<path style=" stroke:none;fill-rule:nonzero;fill:url(#radial1);" d="M 24 44 L 104 44 L 104 86 L 24 86 Z M 24 44 "/>
<use xlink:href="#surface762" mask="url(#mask2)"/>
<use xlink:href="#surface765" mask="url(#mask3)"/>
<path style=" stroke:none;fill-rule:nonzero;fill:url(#linear3);" d="M 24 48 L 104 48 L 104 86 L 24 86 Z M 24 48 "/>
<use xlink:href="#surface768" mask="url(#mask4)"/>
<use xlink:href="#surface771" mask="url(#mask5)"/>
<use xlink:href="#surface774" mask="url(#mask6)"/>
<use xlink:href="#surface777" mask="url(#mask7)"/>
<use xlink:href="#surface780" mask="url(#mask8)"/>
<use xlink:href="#surface783" mask="url(#mask9)"/>
<path style=" stroke:none;fill-rule:nonzero;fill:url(#radial6);" d="M 18 64 C 18 66.210938 16.210938 68 14 68 C 11.789062 68 10 66.210938 10 64 C 10 61.789062 11.789062 60 14 60 C 16.210938 60 18 61.789062 18 64 Z M 18 64 "/>
<use xlink:href="#surface786" mask="url(#mask10)"/>
<path style=" stroke:none;fill-rule:nonzero;fill:url(#radial7);" d="M 118 64 C 118 66.210938 116.210938 68 114 68 C 111.789062 68 110 66.210938 110 64 C 110 61.789062 111.789062 60 114 60 C 116.210938 60 118 61.789062 118 64 Z M 118 64 "/>
<use xlink:href="#surface789" mask="url(#mask11)"/>
<use xlink:href="#surface792" mask="url(#mask12)"/>
<use xlink:href="#surface795" mask="url(#mask13)"/>
<use xlink:href="#surface798" mask="url(#mask14)"/>
</g>
</svg>
